<mxfile host="app.diagrams.net" modified="2023-08-25T03:30:41.280Z" agent="Mozilla/5.0 (Windows NT 10.0; Win64; x64) AppleWebKit/537.36 (KHTML, like Gecko) Chrome/115.0.0.0 Safari/537.36 Edg/115.0.1901.203" etag="IUbWq07EZ6Bq5JFwF8d7" version="21.3.6" type="github">
  <diagram name="第 1 页" id="KHeacQmVZqcbtB-iJJAr">
    <mxGraphModel dx="1386" dy="756" grid="1" gridSize="10" guides="1" tooltips="1" connect="1" arrows="1" fold="1" page="1" pageScale="1" pageWidth="827" pageHeight="1169" math="0" shadow="0">
      <root>
        <mxCell id="0" />
        <mxCell id="1" parent="0" />
        <mxCell id="rBMrzU0n8OsuGqK5paL5-5" style="edgeStyle=orthogonalEdgeStyle;rounded=0;orthogonalLoop=1;jettySize=auto;html=1;exitX=1;exitY=0.5;exitDx=0;exitDy=0;exitPerimeter=0;dashed=1;strokeColor=#FF3333;startArrow=classic;startFill=1;" edge="1" parent="1" source="TKRizjUwtHlPlHG3qa6W-1" target="rBMrzU0n8OsuGqK5paL5-1">
          <mxGeometry relative="1" as="geometry" />
        </mxCell>
        <mxCell id="TKRizjUwtHlPlHG3qa6W-1" value="" style="shape=mxgraph.cisco.servers.fileserver;sketch=0;html=1;pointerEvents=1;dashed=0;fillColor=#036897;strokeColor=#ffffff;strokeWidth=2;verticalLabelPosition=bottom;verticalAlign=top;align=center;outlineConnect=0;" parent="1" vertex="1">
          <mxGeometry x="130" y="350" width="43" height="62" as="geometry" />
        </mxCell>
        <mxCell id="TKRizjUwtHlPlHG3qa6W-8" style="edgeStyle=orthogonalEdgeStyle;rounded=0;orthogonalLoop=1;jettySize=auto;html=1;exitX=0.5;exitY=0;exitDx=0;exitDy=0;exitPerimeter=0;entryX=0.5;entryY=1;entryDx=0;entryDy=0;entryPerimeter=0;" parent="1" source="TKRizjUwtHlPlHG3qa6W-2" target="TKRizjUwtHlPlHG3qa6W-5" edge="1">
          <mxGeometry relative="1" as="geometry" />
        </mxCell>
        <mxCell id="TKRizjUwtHlPlHG3qa6W-2" value="" style="shape=mxgraph.cisco.switches.atm_switch;sketch=0;html=1;pointerEvents=1;dashed=0;fillColor=#036897;strokeColor=#ffffff;strokeWidth=2;verticalLabelPosition=bottom;verticalAlign=top;align=center;outlineConnect=0;" parent="1" vertex="1">
          <mxGeometry x="578" y="353" width="54" height="56" as="geometry" />
        </mxCell>
        <mxCell id="TKRizjUwtHlPlHG3qa6W-5" value="" style="shape=mxgraph.cisco.servers.microwebserver;sketch=0;html=1;pointerEvents=1;dashed=0;fillColor=#036897;strokeColor=#ffffff;strokeWidth=2;verticalLabelPosition=bottom;verticalAlign=top;align=center;outlineConnect=0;" parent="1" vertex="1">
          <mxGeometry x="567" y="240" width="77" height="51" as="geometry" />
        </mxCell>
        <mxCell id="TKRizjUwtHlPlHG3qa6W-6" value="待监控服务器" style="text;html=1;align=center;verticalAlign=middle;resizable=0;points=[];autosize=1;strokeColor=none;fillColor=none;" parent="1" vertex="1">
          <mxGeometry x="101.5" y="420" width="100" height="30" as="geometry" />
        </mxCell>
        <mxCell id="TKRizjUwtHlPlHG3qa6W-9" value="向外提供服务" style="text;html=1;align=center;verticalAlign=middle;resizable=0;points=[];autosize=1;strokeColor=none;fillColor=none;" parent="1" vertex="1">
          <mxGeometry x="555.5" y="200" width="100" height="30" as="geometry" />
        </mxCell>
        <mxCell id="TKRizjUwtHlPlHG3qa6W-12" value="生产环境交换机" style="text;html=1;align=center;verticalAlign=middle;resizable=0;points=[];autosize=1;strokeColor=none;fillColor=none;" parent="1" vertex="1">
          <mxGeometry x="550" y="420" width="110" height="30" as="geometry" />
        </mxCell>
        <mxCell id="rBMrzU0n8OsuGqK5paL5-2" style="edgeStyle=orthogonalEdgeStyle;rounded=0;orthogonalLoop=1;jettySize=auto;html=1;exitX=1;exitY=0.5;exitDx=0;exitDy=0;entryX=0;entryY=0.5;entryDx=0;entryDy=0;entryPerimeter=0;" edge="1" parent="1" source="rBMrzU0n8OsuGqK5paL5-1" target="TKRizjUwtHlPlHG3qa6W-2">
          <mxGeometry relative="1" as="geometry" />
        </mxCell>
        <mxCell id="rBMrzU0n8OsuGqK5paL5-1" value="" style="shape=image;verticalLabelPosition=bottom;labelBackgroundColor=default;verticalAlign=top;aspect=fixed;imageAspect=0;image=https://www.macnica.com/content/dam/macnicagwi/apac/galaxy/public/zh_tw/images/technical-articles/figure2-2.png;" vertex="1" parent="1">
          <mxGeometry x="270" y="316" width="190.96" height="130" as="geometry" />
        </mxCell>
        <mxCell id="rBMrzU0n8OsuGqK5paL5-6" value="智能网卡" style="text;html=1;align=center;verticalAlign=middle;resizable=0;points=[];autosize=1;strokeColor=none;fillColor=none;" vertex="1" parent="1">
          <mxGeometry x="330.48" y="420" width="70" height="30" as="geometry" />
        </mxCell>
        <mxCell id="rBMrzU0n8OsuGqK5paL5-7" value="PCIE互联" style="text;html=1;align=center;verticalAlign=middle;resizable=0;points=[];autosize=1;strokeColor=none;fillColor=none;" vertex="1" parent="1">
          <mxGeometry x="180" y="350" width="80" height="30" as="geometry" />
        </mxCell>
      </root>
    </mxGraphModel>
  </diagram>
</mxfile>
